<?xml version="1.0" standalone="no"?>
<!DOCTYPE svg PUBLIC "-//W3C//DTD SVG 20010904//EN"
 "http://www.w3.org/TR/2001/REC-SVG-20010904/DTD/svg10.dtd">
<svg version="1.0" xmlns="http://www.w3.org/2000/svg"
 width="3000.000000pt" height="3000.000000pt" viewBox="0 0 3000.000000 3000.000000"
 preserveAspectRatio="xMidYMid meet">
<metadata>
Created by potrace 1.11, written by Peter Selinger 2001-2013
</metadata>
<g transform="translate(0.000000,3000.000000) scale(0.100000,-0.100000)"
fill="#000000" stroke="none">
<path d="M5940 15185 l0 -8295 1675 0 1675 0 0 4926 c0 3042 4 4924 9 4922 5
-1 757 -433 1670 -958 l1660 -954 4 -2376 c4 -2546 2 -2444 52 -2805 225
-1593 1083 -2563 2635 -2980 149 -41 492 -113 613 -130 l47 -6 0 5106 c0 4082
3 5106 13 5102 6 -3 460 -262 1007 -577 547 -315 1293 -743 1657 -953 l662
-380 4 -2361 c4 -2557 1 -2434 58 -2841 190 -1379 895 -2311 2109 -2790 278
-109 575 -194 905 -259 99 -19 201 -38 228 -41 l47 -7 -2 5112 -3 5113 -205
118 c-113 65 -843 487 -1623 936 -780 450 -1419 822 -1420 827 -1 5 730 439
1625 965 l1627 956 1 1463 0 1462 -1675 0 -1675 0 -2 -2386 -3 -2386 -1656
-952 c-912 -523 -1664 -958 -1673 -965 -9 -7 -13 -17 -10 -22 3 -5 1 -9 -5 -9
-5 0 -607 345 -1338 766 -730 421 -1462 843 -1625 937 -164 94 -296 172 -295
173 1 0 720 423 1597 939 877 516 1612 949 1633 962 l37 23 0 1460 0 1460
-1675 0 -1675 0 0 -2384 0 -2384 -1670 -960 -1670 -960 0 3344 0 3344 -1675 0
-1675 0 0 -8295z"/>
</g>
</svg>
